# xmcd
#
# Track frame offsets:
#	150
#	23595
#	36711
#	58783
#	70480
#	91217
#	107692
#	124365
#	141246
#	152863
#
# Disc length: 2202 seconds
#
# Revision: 1
# Processed by: cddbd v1.5.2PL0 Copyright (c) Steve Scherf et al.
# Submitted via: audiograbber 1.83.01
#
DISCID=9208980a
DTITLE=Various Artist - Noisy Girls 2006
DYEAR=1900
DGENRE=
TTITLE0=Erica Hildebrandt - Let Go
TTITLE1=Mahani Khalil - Burn for You
TTITLE2=Fairryn (Fezza) Giann - Dreams of Mine
TTITLE3=Kahlia Vanek - Nine Lives
TTITLE4=Stephanie Camera - Not Anymore
TTITLE5=Jess McKenzie and Wendy Rule - Falling Again 
TTITLE6=Kahlia Vanek - Nothing
TTITLE7=Erica Hildebrandt - Without a Question
TTITLE8=Karina Bray - Love you like I Do
TTITLE9=Jennifer Bieganski - My Friends
EXTD=
EXTT0=
EXTT1=
EXTT2=
EXTT3=
EXTT4=
EXTT5=
EXTT6=
EXTT7=
EXTT8=
EXTT9=
PLAYORDER=
